<?xml version="1.0" encoding="UTF-8"?>
<svg id="Layer_2" data-name="Layer 2" xmlns="http://www.w3.org/2000/svg" viewBox="0 0 40.98 54">
  <defs>
    <style>
      .cls-1 {
        fill: #fff;
      }

      .cls-2 {
        fill: #5fcf80;
      }
    </style>
  </defs>
  <g id="Layer_1-2" data-name="Layer 1">
    <g>
      <path class="cls-2" d="m21.42,0C9.4-.31-6.99,31.04,3.19,45.56c3.45,4.91,10.3,8.43,17.33,8.44,6.49.02,13.09-2.94,16.67-7.56C48.02,32.48,33.43.32,21.42,0Z"/>
      <path class="cls-1" d="m25.12,11.41c-1.8-.12-3.33,1.63-3.26,3.41.06,1.54,1.3,3.07,2.96,3.11,1.75.04,3.1-1.6,3.11-3.26,0-1.58-1.2-3.15-2.81-3.26Z"/>
      <path class="cls-1" d="m30.45,21.34c-3.18.09-5.56,3.03-5.48,6.07.09,3.15,2.81,6.02,6.07,5.78,3.26-.24,5.5-3.44,5.19-6.52-.29-2.84-2.73-5.42-5.78-5.33Z"/>
    </g>
  </g>
</svg>