<?xml version="1.0" encoding="UTF-8"?>
<svg id="Layer_2" data-name="Layer 2" xmlns="http://www.w3.org/2000/svg" viewBox="0 0 40.98 54">
  <defs>
    <style>
      .cls-1 {
        fill: #fff;
      }
    </style>
  </defs>
  <g id="Layer_1-2" data-name="Layer 1">
    <path class="cls-1" d="m21.42,0C9.4-.31-6.99,31.04,3.19,45.56c3.45,4.91,10.3,8.43,17.33,8.44,6.49.02,13.09-2.94,16.67-7.56C48.02,32.48,33.43.32,21.42,0Zm.44,14.81c-.07-1.78,1.46-3.53,3.26-3.41,1.61.11,2.82,1.68,2.81,3.26-.01,1.66-1.36,3.3-3.11,3.26-1.66-.04-2.9-1.57-2.96-3.11Zm9.19,18.37c-3.27.24-5.99-2.63-6.07-5.78-.08-3.04,2.3-5.99,5.48-6.07,3.05-.08,5.49,2.5,5.78,5.33.31,3.08-1.93,6.28-5.19,6.52Z"/>
  </g>
</svg>